<svg width="42" height="40" viewBox="0 0 42 40" fill="none" xmlns="http://www.w3.org/2000/svg">
<path d="M0 12V0.5338H1.91064V2.44444H3.82129V4.35742H1.91064V12H0ZM5.73193 12V6.26807H3.82129V4.35742H5.73193V0.5338H7.64258V12H5.73193ZM11.3706 12V10.0894H15.1919V12H11.3706ZM9.46 10.0894V4.35742H11.3706V10.0894H9.46ZM15.1919 10.0894V4.35742H17.1026V10.0894H15.1919ZM11.3706 4.35742V2.44444H15.1919V4.35742H11.3706ZM3.82129 20.2681V18.3574H5.73193V20.2681H3.82129ZM0 26V14.5338H1.91064V16.4444H3.82129V18.3574H1.91064V26H0ZM7.64258 26V18.3574H5.73193V16.4444H7.64258V14.5338H9.55556V26H7.64258ZM13.2836 26V24.0894H17.1049V26H13.2836ZM11.373 24.0894V18.3574H13.2836V24.0894H11.373ZM17.1049 24.0894V18.3574H19.0156V24.0894H17.1049ZM13.2836 18.3574V16.4444H17.1049V18.3574H13.2836ZM20.833 26V16.4444H28.4756V18.3574H22.7436V26H20.833ZM36.0249 20.2681V18.3574H32.2036V20.2681H36.0249ZM30.293 26V16.4444H37.9356V22.1787H32.2036V24.0894H37.9356V26H30.293ZM0 40V30.4444H1.91064V34.2681H5.73193V30.4444H7.64258V40H5.73193V36.1787H1.91064V40H0ZM1.91064 30.4444V28.5338H5.73193V30.4444H1.91064ZM9.46 40V30.4444H11.3706V40H9.46ZM18.9223 38.0894V36.1787H15.101V38.0894H18.9223ZM13.1904 40V30.4444H15.101V34.2681H20.833V40H13.1904ZM24.561 40V38.0894H28.3823V40H24.561ZM22.6504 38.0894V30.4444H24.561V38.0894H22.6504ZM28.3823 38.0894V30.4444H30.293V38.0894H28.3823ZM35.9317 40V34.2681H37.8423V40H35.9317ZM32.1104 40V30.4444H34.021V32.3574H35.9317V34.2681H34.021V40H32.1104ZM39.753 40V34.2681H37.8423V32.3574H39.753V30.4444H41.666V40H39.753Z" fill="black"/>
</svg>
